<svg xmlns="http://www.w3.org/2000/svg" viewBox="0 0 105 105"><defs><style>.cls-1{fill:#55acee;}.cls-2{fill:#fff;}</style></defs><title>footer_twitter</title><g id="レイヤー_2" data-name="レイヤー 2"><g id="footer"><rect id="Blue" class="cls-1" width="105" height="105" rx="5.8" ry="5.8"/><path class="cls-2" d="M85.5,32a27.07,27.07,0,0,1-7.78,2.13,13.58,13.58,0,0,0,6-7.49A27.11,27.11,0,0,1,75.08,30,13.55,13.55,0,0,0,52,42.31,38.44,38.44,0,0,1,24.09,28.16a13.56,13.56,0,0,0,4.19,18.08,13.49,13.49,0,0,1-6.13-1.69c0,.06,0,.11,0,.17A13.55,13.55,0,0,0,33,58a13.57,13.57,0,0,1-6.12.23,13.55,13.55,0,0,0,12.65,9.4,27.17,27.17,0,0,1-16.82,5.8,27.56,27.56,0,0,1-3.23-.19,38.33,38.33,0,0,0,20.76,6.08c24.91,0,38.53-20.63,38.53-38.53q0-.88,0-1.75A27.52,27.52,0,0,0,85.5,32Z"/></g></g></svg>