<svg xmlns="http://www.w3.org/2000/svg" viewBox="0 0 105 105"><defs><style>.cls-1{fill:#00b800;}.cls-2{fill:#fff;}</style></defs><title>footer_line</title><g id="レイヤー_2" data-name="レイヤー 2"><g id="footer"><path class="cls-1" d="M86,0H19.14A19.1,19.1,0,0,0,0,19V85.86A19.1,19.1,0,0,0,19,105H85.86A19.1,19.1,0,0,0,105,86V19.14A19.1,19.1,0,0,0,86,0"/><path class="cls-2" d="M90.56,47.88c0-17.11-17.15-31-38.23-31S14.1,30.78,14.1,47.88c0,15.34,13.6,28.18,32,30.61,1.24.27,2.94.82,3.37,1.89a7.85,7.85,0,0,1,.12,3.46L49,87.11c-.17,1-.77,3.78,3.31,2.06s22-13,30-22.2h0c5.54-6.08,8.19-12.24,8.19-19.09"/><path class="cls-1" d="M44.56,39.62H41.88a.74.74,0,0,0-.74.74V57a.74.74,0,0,0,.74.74h2.68a.74.74,0,0,0,.74-.74V40.36a.74.74,0,0,0-.74-.74"/><path class="cls-1" d="M63,39.62H60.34a.74.74,0,0,0-.74.74v9.9L52,39.95l-.06-.08h0l0,0h0l0,0,0,0,0,0h0l0,0h0l0,0h-3a.74.74,0,0,0-.74.74V57a.74.74,0,0,0,.74.74h2.68a.74.74,0,0,0,.75-.74V47.13l7.64,10.32a.74.74,0,0,0,.19.18h0l0,0h0l0,0,0,0h0l.05,0h0l.19,0H63a.74.74,0,0,0,.74-.74V40.36a.74.74,0,0,0-.74-.74"/><path class="cls-1" d="M38.1,53.59H30.81V40.36a.74.74,0,0,0-.74-.74H27.39a.74.74,0,0,0-.74.74V57h0a.74.74,0,0,0,.21.51h0a.74.74,0,0,0,.51.21H38.1a.74.74,0,0,0,.74-.74V54.34a.74.74,0,0,0-.74-.74"/><path class="cls-1" d="M77.83,43.79a.74.74,0,0,0,.74-.74V40.36a.74.74,0,0,0-.74-.75H67.11a.74.74,0,0,0-.52.21h0a.74.74,0,0,0-.21.51h0V57h0a.74.74,0,0,0,.21.51h0a.74.74,0,0,0,.51.21H77.83a.74.74,0,0,0,.74-.74V54.34a.74.74,0,0,0-.74-.74H70.54V50.78h7.29a.74.74,0,0,0,.74-.74V47.35a.74.74,0,0,0-.74-.75H70.54V43.79Z"/></g></g></svg>